<?xml version="1.0" encoding="UTF-8"?>
<svg id="Layer_2" data-name="Layer 2" xmlns="http://www.w3.org/2000/svg" viewBox="0 0 735.33 300.25">
  <defs>
    <style>
      .cls-1 {
        stroke-width: 0px;
      }

      .cls-1, .cls-2 {
        fill: #1e1e1e;
      }

      .cls-2 {
        stroke: #231f20;
        stroke-miterlimit: 10;
        stroke-width: .25px;
      }
    </style>
  </defs>
  <g id="Layer_1-2" data-name="Layer 1">
    <g>
      <g>
        <path class="cls-2" d="M297.68,156.54l-12.08-27.36c-1.89-4.27-2.7-8.94-2.37-13.61l2.11-29.9c.82-11.57-5.4-22.48-15.71-27.55l-26.63-13.1c-4.15-2.04-7.75-5.1-10.46-8.88l-17.36-24.27c-5.35-7.48-13.85-11.74-22.7-11.74-2.27,0-4.56.28-6.82.86l-28.71,7.3c-2.24.57-4.53.85-6.82.85s-4.58-.28-6.82-.85L114.59.98c-2.27-.58-4.56-.86-6.82-.86-8.85,0-17.35,4.26-22.7,11.74l-17.36,24.27c-2.71,3.79-6.3,6.84-10.46,8.88l-26.63,13.1c-10.31,5.07-16.53,15.98-15.71,27.55l2.11,29.9c.33,4.66-.48,9.34-2.37,13.61l-12.08,27.36c-4.68,10.59-2.52,23,5.46,31.33l20.6,21.53c3.21,3.36,5.56,7.47,6.82,11.97l8.11,28.82c3.14,11.16,12.67,19.26,24.07,20.45l29.44,3.09c4.59.48,9,2.11,12.83,4.73l24.51,16.8c4.74,3.25,10.23,4.88,15.71,4.88s10.97-1.63,15.71-4.88l24.51-16.8c3.83-2.62,8.23-4.24,12.83-4.73l29.44-3.09c11.4-1.19,20.93-9.29,24.07-20.45l8.11-28.82c1.27-4.5,3.61-8.61,6.82-11.97l20.6-21.53c7.97-8.33,10.13-20.74,5.46-31.33ZM280.05,175.92l-20.6,21.53c-5.14,5.37-8.93,12.02-10.95,19.21l-8.11,28.82c-1.25,4.43-4.98,7.6-9.51,8.08l-29.45,3.09c-7.35.77-14.46,3.39-20.58,7.59l-24.51,16.8c-1.84,1.26-3.99,1.93-6.21,1.93s-4.37-.67-6.21-1.93l-24.52-16.8c-6.12-4.19-13.23-6.81-20.58-7.59l-29.44-3.09c-4.53-.47-8.26-3.65-9.51-8.08l-8.11-28.82c-2.02-7.19-5.81-13.83-10.95-19.21l-20.6-21.53c-3.17-3.31-4.01-8.17-2.16-12.38l12.08-27.36c3.02-6.83,4.33-14.38,3.8-21.84l-2.11-29.9c-.32-4.6,2.11-8.87,6.21-10.88l26.63-13.1c6.64-3.27,12.45-8.2,16.78-14.26l17.36-24.28c2.08-2.9,5.43-4.64,8.97-4.64.9,0,1.81.11,2.7.34l28.71,7.3c3.58.91,7.26,1.37,10.95,1.37s7.37-.46,10.95-1.37l28.71-7.3c.88-.22,1.79-.34,2.7-.34,3.54,0,6.89,1.73,8.97,4.64l17.36,24.28c4.33,6.06,10.13,10.99,16.78,14.26l26.63,13.1c4.1,2.01,6.53,6.29,6.21,10.88l-2.11,29.9c-.53,7.46.79,15.01,3.8,21.84l12.08,27.36c1.86,4.21,1.01,9.07-2.16,12.38Z"/>
        <path class="cls-1" d="M245.13,97.12c-2.51-2.63-4.35-5.84-5.34-9.36l-6.34-22.53c-2.46-8.72-9.91-15.05-18.82-15.99l-23.02-2.41c-3.59-.38-7.04-1.65-10.03-3.69l-19.16-13.13c-3.71-2.54-8-3.81-12.28-3.81s-8.57,1.27-12.28,3.81l-19.16,13.13c-2.99,2.05-6.44,3.32-10.03,3.7l-23.01,2.41c-8.91.93-16.36,7.26-18.82,15.99l-6.34,22.53c-.99,3.52-2.82,6.73-5.33,9.36l-16.1,16.83c-6.23,6.51-7.92,16.21-4.27,24.49l9.45,21.39c1.47,3.34,2.11,6.99,1.85,10.64l-1.65,23.37c-.64,9.05,4.22,17.58,12.28,21.54l20.81,10.24c3.25,1.6,6.05,3.98,8.17,6.94l13.57,18.98c4.18,5.85,10.83,9.17,17.75,9.17h0c2.87,0,5.66-.9,8-2.57l19.12-13.59.02-.02c1.09-.77,2.38-1.18,3.71-1.18h4.49c1.34,0,2.66.42,3.76,1.2h0s19.12,13.59,19.12,13.59c2.34,1.67,5.14,2.56,8,2.57h0c6.92,0,13.56-3.33,17.75-9.17l13.57-18.98c2.12-2.96,4.93-5.35,8.17-6.94l20.81-10.24c8.06-3.96,12.92-12.49,12.28-21.54l-1.65-23.37c-.26-3.65.38-7.3,1.85-10.64l9.45-21.39c3.66-8.28,1.97-17.98-4.27-24.49l-16.1-16.82ZM83.26,69.97c.54-1.93,2.19-3.32,4.15-3.53l23.02-2.41c6.37-.67,12.53-2.94,17.84-6.57l19.16-13.13c1.02-.7,2.03-.84,2.71-.84s1.7.15,2.71.84l19.16,13.13c5.3,3.63,11.47,5.91,17.84,6.57l23.02,2.41c1.98.21,3.61,1.59,4.15,3.53l6.34,22.53v.03c.45,1.58-.31,3.25-1.78,3.93l-53.06,24.57c-5.02,2.08-7.73,7.69-6.2,13.03l10.5,36.44c.43,1.48-.24,3.06-1.59,3.78l-19.82,10.47c-.93.49-2.03.49-2.96,0l-19.82-10.48c-1.35-.71-2.02-2.3-1.59-3.78l10.5-36.44c1.53-5.33-1.18-10.94-6.2-13.02l-52.78-24.42c-1.46-.68-2.17-2.34-1.72-3.91.02-.07.04-.13.06-.2l6.34-22.53ZM117.78,242.17c-1.51,1.07-3.58.72-4.67-.78h0s-13.57-18.97-13.57-18.97c-3.75-5.25-8.78-9.52-14.54-12.36l-20.82-10.24c-1.79-.88-2.85-2.75-2.71-4.75l1.65-23.37c.46-6.49-.67-12.99-3.3-18.93l-9.45-21.39c-.81-1.83-.43-3.97.94-5.41l13.66-14.28c.94-.98,2.39-1.26,3.63-.69l48.48,22.44c1.44.67,2.19,2.31,1.74,3.85l-10.45,36.27c-1.38,4.78.79,9.92,5.15,12.22l26.34,13.92c1.06.56,1.72,1.66,1.72,2.87v21.91c0,1.31-.79,2.48-1.99,2.99-1.84.77-3.6,1.75-5.26,2.92l-16.57,11.78ZM249.9,131.38l-9.45,21.39c-2.62,5.94-3.75,12.44-3.3,18.93l1.65,23.37c.14,2-.93,3.88-2.71,4.75l-20.82,10.24c-5.76,2.83-10.79,7.11-14.54,12.36l-13.57,18.98h0c-1.09,1.51-3.16,1.85-4.67.78l-16.57-11.78c-1.67-1.18-3.44-2.17-5.29-2.94-1.2-.5-1.99-1.67-1.99-2.99v-22.09c0-1.21.66-2.31,1.72-2.87l25.74-13.6c4.5-2.38,6.73-7.68,5.31-12.61l-10.38-36.01c-.44-1.54.3-3.18,1.74-3.85l48.75-22.57c1.23-.57,2.68-.29,3.63.69l13.8,14.42c1.38,1.44,1.75,3.58.94,5.41Z"/>
      </g>
      <g>
        <path class="cls-1" d="M371.11,181.05c0,11.84,9.43,21.49,21.27,21.49h9.87v20.39h-9.87c-23.03,0-41.67-18.86-41.67-41.89v-105.92h20.39v105.92Z"/>
        <path class="cls-1" d="M427.2,182.14c4.6,13.16,17.11,22.59,31.8,22.59,11.18,0,21.05-5.48,27.19-13.82h23.03c-7.9,19.96-27.41,34.21-50.22,34.21-30.04,0-54.17-24.34-54.17-54.17s24.12-54.39,54.17-54.39,54.17,24.34,54.17,54.39c0,3.73-.44,7.68-1.32,11.18h-84.65ZM491.45,161.75c-3.95-14.25-16.89-24.78-32.46-24.78s-28.73,10.53-32.68,24.78h65.13Z"/>
        <path class="cls-1" d="M572.51,225.12c-29.27,0-52.96-23.69-52.96-52.96s23.69-52.96,52.96-52.96,52.96,23.69,52.96,52.96-23.69,52.96-52.96,52.96ZM572.51,139.61c-18.09,0-32.56,14.47-32.56,32.56s14.47,32.56,32.56,32.56,32.56-14.47,32.56-32.56-14.47-32.56-32.56-32.56Z"/>
        <path class="cls-1" d="M675.68,222.71h-28.29l29.82-35.96c-30.04-1.1-53.73-25.66-53.73-55.92s25-55.7,55.92-55.7,55.92,24.12,55.92,55.04c0,13.82-5.04,26.75-13.6,36.84l-46.05,55.7ZM705.06,152.98c5.26-6.14,8.55-14.04,8.55-22.81,0-18.64-15.13-33.33-34.21-33.33s-34.21,15.13-34.21,33.99,15.35,34.21,34.21,34.21c10.09,0,19.08-4.6,25.44-11.84l.22-.22Z"/>
      </g>
    </g>
  </g>
</svg>